# xmcd CD database file
#
# Track frame offsets:
#	150
#	20235
#	31505
#	61585
#	74527
#	96625
#	114090
#	123045
#	142637
#	168517
#	195045
#	229317
#
# Disc length: 4440 seconds
#
# Revision: 0
# Processed by: cddbd v1.5PL3 Copyright (c) Steve Scherf et al.
# Submitted via: CDex 1.51
#
DISCID=9011560c
DTITLE=Gary Moore - After Hours
DYEAR=1992
DGENRE=Blues
TTITLE0=Cold Day In Hell
TTITLE1=Don't You Lie To Me (I Get Evil)
TTITLE2=Story Of The Blues
TTITLE3=Since I Met You Baby
TTITLE4=Separate Ways
TTITLE5=Only Fool In Town
TTITLE6=Key To Love
TTITLE7=Jumpin' At Shadow
TTITLE8=The Blues Is Alright
TTITLE9=The Hurt Inside
TTITLE10=Nothing's The Same
TTITLE11=Player Software
EXTD=YEAR: 1992
EXTT0=
EXTT1=
EXTT2=
EXTT3=
EXTT4=
EXTT5=
EXTT6=
EXTT7=
EXTT8=
EXTT9=
EXTT10=
EXTT11=
PLAYORDER=
